<svg width="27" height="27" viewBox="0 0 27 27" fill="none" xmlns="http://www.w3.org/2000/svg">
<path d="M21.6048 1.56444C21.9992 1.17783 22.6323 1.18415 23.0189 1.57855L24.419 3.0068L25.819 4.43506C26.2056 4.82946 26.1993 5.46259 25.8049 5.8492L5.09522 26.1497C4.70082 26.5363 4.06768 26.53 3.68108 26.1356L0.881009 23.2791C0.4944 22.8847 0.500717 22.2515 0.895118 21.8649L21.6048 1.56444Z" fill="#1C2022"/>
<path d="M21.6048 1.56444C21.9992 1.17783 22.6323 1.18415 23.0189 1.57855L24.419 3.0068L25.819 4.43506C26.2056 4.82946 26.1993 5.46259 25.8049 5.8492L5.09522 26.1497C4.70082 26.5363 4.06768 26.53 3.68108 26.1356L0.881009 23.2791C0.4944 22.8847 0.500717 22.2515 0.895118 21.8649L21.6048 1.56444Z" fill="#1C2022"/>
<path d="M25.4852 21.9511C25.8664 22.34 25.8663 22.9625 25.485 23.3513L24.1792 24.6828L22.7474 26.0863C22.3544 26.4715 21.724 26.4668 21.3368 26.0757L0.922457 5.45737C0.532504 5.06352 0.537257 4.42764 0.933055 4.03966L3.78598 1.2431C4.18038 0.856495 4.81351 0.862812 5.20012 1.25721L25.4852 21.9511Z" fill="#1C2022"/>
</svg>
