<svg width="27" height="27" viewBox="0 0 27 27" fill="none" xmlns="http://www.w3.org/2000/svg">
<path d="M21.4238 1.02135C21.8182 0.634744 22.4513 0.64106 22.838 1.03546L24.238 2.46371L25.638 3.89197C26.0246 4.28637 26.0183 4.9195 25.6239 5.30611L4.91425 25.6066C4.51985 25.9932 3.88672 25.9869 3.50011 25.5925L0.70004 22.736C0.313431 22.3416 0.319748 21.7084 0.714149 21.3218L21.4238 1.02135Z" fill="#C0AC55"/>
<path d="M21.4238 1.02135C21.8182 0.634744 22.4513 0.64106 22.838 1.03546L24.238 2.46371L25.638 3.89197C26.0246 4.28637 26.0183 4.9195 25.6239 5.30611L4.91425 25.6066C4.51985 25.9932 3.88672 25.9869 3.50011 25.5925L0.70004 22.736C0.313431 22.3416 0.319748 21.7084 0.714149 21.3218L21.4238 1.02135Z" fill="#C0AC55"/>
<path d="M25.3042 21.408C25.6854 21.797 25.6854 22.4194 25.304 22.8083L23.9982 24.1397L22.5664 25.5432C22.1734 25.9284 21.543 25.9237 21.1558 25.5326L0.741488 4.91428C0.351535 4.52043 0.356288 3.88455 0.752085 3.49657L3.60501 0.700013C3.99941 0.313404 4.63254 0.319721 5.01915 0.714122L25.3042 21.408Z" fill="#C0AC55"/>
</svg>
