<svg width="38" height="38" viewBox="0 0 38 38" fill="none" xmlns="http://www.w3.org/2000/svg">
<path d="M16.4127 4.74382C16.4182 4.19156 16.8704 3.74834 17.4226 3.75385L19.4225 3.7738L21.4224 3.79375C21.9747 3.79926 22.4179 4.25142 22.4124 4.80368L22.1231 33.8022C22.1176 34.3545 21.6654 34.7977 21.1131 34.7922L17.1133 34.7523C16.5611 34.7468 16.1178 34.2946 16.1234 33.7424L16.4127 4.74382Z" fill="#1C2022"/>
<path d="M16.4127 4.74382C16.4182 4.19156 16.8704 3.74834 17.4226 3.75385L19.4225 3.7738L21.4224 3.79375C21.9747 3.79926 22.4179 4.25142 22.4124 4.80368L22.1231 33.8022C22.1176 34.3545 21.6654 34.7977 21.1131 34.7922L17.1133 34.7523C16.5611 34.7468 16.1178 34.2946 16.1234 33.7424L16.4127 4.74382Z" fill="#1C2022"/>
<path d="M33.5721 16.4155C34.1167 16.421 34.5568 16.8612 34.5621 17.4058L34.5802 19.2705L34.5602 21.2754C34.5547 21.8257 34.1056 22.2682 33.5553 22.2654L4.5408 22.1211C3.98657 22.1184 3.54029 21.6654 3.54582 21.1112L3.58568 17.1164C3.59119 16.5641 4.04335 16.1209 4.59561 16.1264L33.5721 16.4155Z" fill="#1C2022"/>
</svg>
